{"title":"Later, Live With Jools Holland (BBC2, Kate Nash, Jerry Dammers,)","uid":5506508,"size":306002009,"categoryP":"video","categoryS":"music_videos","magnet":"?xt=urn:btih:bfd69ba536ba001df1dd71fb4e59430c44876be9&amp;dn=Later%2C+Live+With+Jools+Holland+%28BBC2%2C+Kate+Nash%2C+Jerry+Dammers%2C%29&amp;tr=udp%3A%2F%2Ftracker.openbittorrent.com%3A80&amp;tr=udp%3A%2F%2Fopen.demonii.com%3A1337&amp;tr=udp%3A%2F%2Ftracker.coppersurfer.tk%3A6969&amp;tr=udp%3A%2F%2Fexodus.desync.com%3A6969","seeders":0,"leechers":3,"uploader":"seanprince","files":-1,"time":1271842373,"description":"Later, Live With Jools Holland (BBC2, Kate Nash, Jerry Dammers,)s36eo2[DTV-RIP-Divx]\n\nFirst Shown On BBC 2 On Tuesday 20th April 2010\n\n\nDescription:\n\nEpisode 2 of Later Live featured Seattle-based rockers Band of Horses visit the studio to play tracks from their new album Infinite Arms, and indie pop star Kate Nash performs songs from My Best Friend Is You, the follow-up to her 2007 release Made of Bricks. Also appearing are ska revivalist Jerry Dammers and his Spatial AKA Orchestra, Pennsylvanian jazz singer Melody Gardot and former Cream star Jack Bruce. Plus, rapper Plan B makes his debut appearance on the show with numbers from his second album The Defamation of Strickland Banks. An extended edition can be seen on Friday at 11.50pm\n\n\nGeneral\nComplete name : Later, Live With Jools Holland.s36eo2\nFormat : AVI\nFormat/Info : Audio Video Interleave\nFile size : 292 MiB\nDuration : 30mn 23s\nOverall bit rate : 1 342 Kbps\n\nVideo\nID : 0\nFormat : MPEG-4 Visual\nFormat settings, BVOP : Yes\nFormat settings, QPel : No\nFormat settings, GMC : No warppoints\nFormat settings, Matrix : Default (H.263)\nMuxing mode : Packed bitstream\nCodec ID : DX50\nCodec ID/Hint : DivX 5\nDuration : 30mn 23s\nBit rate : 1 141 Kbps\nWidth : 688 pixels\nHeight : 384 pixels\nDisplay aspect ratio : 16:9\nFrame rate : 25.000 fps\nResolution : 8 bits\nColorimetry : 4:2:0\nScan type : Progressive\nBits/(Pixel*Frame) : 0.173\nStream size : 248 MiB (85%)\nTitle : Video\nWriting library : DivX 6.8.2 (UTC 2008-05-17)\n\nAudio\nID : 1\nFormat : AC-3\nFormat/Info : Audio Coding 3\nCodec ID : 2000\nDuration : 30mn 23s\nBit rate mode : Constant\nBit rate : 192 Kbps\nChannel(s) : 2 channels\nChannel positions : Front: L R\nSampling rate : 48.0 KHz\nStream size : 41.7 MiB (14%)\nAlignment : Split accross interleaves\nInterleave, duration : 40 ms (1.00 video frame)\nInterleave, preload duration : 500 ms","torrent":{"xt":"urn:btih:bfd69ba536ba001df1dd71fb4e59430c44876be9","amp;dn":"Later%2C+Live+With+Jools+Holland+%28BBC2%2C+Kate+Nash%2C+Jerry+Dammers%2C%29","amp;tr":["udp%3A%2F%2Ftracker.openbittorrent.com%3A80","udp%3A%2F%2Fopen.demonii.com%3A1337","udp%3A%2F%2Ftracker.coppersurfer.tk%3A6969","udp%3A%2F%2Fexodus.desync.com%3A6969"],"infoHash":"bfd69ba536ba001df1dd71fb4e59430c44876be9","infoHashBuffer":{"type":"Buffer","data":[191,214,155,165,54,186,0,29,241,221,113,251,78,89,67,12,68,135,107,233]},"announce":[],"urlList":[]}}